<svg xmlns="http://www.w3.org/2000/svg" width="480" height="640" viewBox="0 0 480 640">
  <defs>
    <linearGradient id="bg30" x1="0" y1="0" x2="0" y2="1">
      <stop offset="0%" stop-color="#4d3424"/>
      <stop offset="60%" stop-color="#2c1e14"/>
      <stop offset="100%" stop-color="#1a110a"/>
    </linearGradient>
    <radialGradient id="ball30g" cx="38%" cy="32%" r="62%">
      <stop offset="0%" stop-color="#c69a6b"/>
      <stop offset="100%" stop-color="#6b3f1c"/>
    </radialGradient>
    <filter id="sh30"><feDropShadow dx="0" dy="3" stdDeviation="5" flood-color="#00000088"/></filter>
  </defs>
  <rect width="480" height="640" fill="url(#bg30)"/>
  <g opacity="0.08" fill="none" stroke="#e8d098" stroke-width="0.6">
    <path d="M0,520 L480,520 M0,540 L480,540 M0,560 L480,560 M0,580 L480,580"/>
  </g>
  <rect x="16" y="16" width="448" height="608" rx="6" fill="none" stroke="#c8a35a" stroke-width="4" opacity="0.9"/>
  <rect x="26" y="26" width="428" height="588" rx="3" fill="none" stroke="#c8a35a" stroke-width="1" opacity="0.5"/>
  <rect x="16" y="16" width="448" height="58" fill="#7a1f1f" opacity="0.9"/>
  <text x="240" y="52" text-anchor="middle" fill="#e8d098" font-size="20" font-family="Georgia, serif" font-weight="700" letter-spacing="6">COPA MUNDIAL · 1930</text>
  <g transform="translate(240,235)" filter="url(#sh30)">
    <circle r="78" fill="url(#ball30g)" stroke="#3a2210" stroke-width="2"/>
    <path d="M-78,-10 Q0,-40 78,-10" fill="none" stroke="#3a2210" stroke-width="1.5"/>
    <path d="M-78,10 Q0,40 78,10" fill="none" stroke="#3a2210" stroke-width="1.5"/>
    <line x1="-78" y1="0" x2="78" y2="0" stroke="#3a2210" stroke-width="1.5"/>
    <line x1="-60" y1="-50" x2="-60" y2="50" stroke="#3a2210" stroke-width="1"/>
    <line x1="-30" y1="-72" x2="-30" y2="72" stroke="#3a2210" stroke-width="1"/>
    <line x1="0" y1="-78" x2="0" y2="78" stroke="#3a2210" stroke-width="1"/>
    <line x1="30" y1="-72" x2="30" y2="72" stroke="#3a2210" stroke-width="1"/>
    <line x1="60" y1="-50" x2="60" y2="50" stroke="#3a2210" stroke-width="1"/>
  </g>
  <text x="240" y="370" text-anchor="middle" fill="#e8d098" font-size="14" font-family="Georgia, serif" letter-spacing="3" opacity="0.85">FIFA WORLD CUP</text>
  <text x="240" y="438" text-anchor="middle" fill="#c8a35a" font-size="86" font-family="Georgia, serif" font-weight="900">1930</text>
  <rect x="120" y="452" width="240" height="38" rx="3" fill="#7a1f1f" opacity="0.9"/>
  <text x="240" y="478" text-anchor="middle" fill="#e8d098" font-size="20" font-family="Georgia, serif" font-weight="700" letter-spacing="2">URUGUAY</text>
  <rect x="16" y="558" width="448" height="66" fill="#1a110a" opacity="0.7"/>
  <text x="240" y="582" text-anchor="middle" fill="#c8a35a" font-size="11" font-family="Georgia, serif" letter-spacing="2">RETROSPECTIVE COLLECTION · 96 STICKERS</text>
  <text x="240" y="606" text-anchor="middle" fill="#a08055" font-size="9" font-family="Georgia, serif" letter-spacing="1" opacity="0.85">PRE-PANINI ERA · NO OFFICIAL ALBUM</text>
</svg>
