<svg xmlns="http://www.w3.org/2000/svg" width="480" height="640" viewBox="0 0 480 640">
  <defs>
    <linearGradient id="bg54" x1="0" y1="0" x2="0" y2="1">
      <stop offset="0%" stop-color="#a02020"/>
      <stop offset="100%" stop-color="#5a0a0a"/>
    </linearGradient>
    <radialGradient id="ball54g" cx="38%" cy="32%" r="62%">
      <stop offset="0%" stop-color="#c69a6b"/>
      <stop offset="100%" stop-color="#6b3f1c"/>
    </radialGradient>
    <filter id="sh54"><feDropShadow dx="0" dy="3" stdDeviation="5" flood-color="#00000088"/></filter>
  </defs>
  <rect width="480" height="640" fill="url(#bg54)"/>
  <rect x="16" y="16" width="448" height="608" rx="6" fill="none" stroke="#f0d060" stroke-width="4" opacity="0.9"/>
  <rect x="16" y="16" width="448" height="58" fill="#1a1a1a" opacity="0.95"/>
  <text x="240" y="48" text-anchor="middle" fill="#f0d060" font-size="17" font-family="Georgia, serif" font-weight="700" letter-spacing="5">FUSSBALL-WELTMEISTERSCHAFT</text>
  <rect x="16" y="74" width="448" height="6" fill="#f0d060" opacity="0.9"/>
  <g transform="translate(240,235)" filter="url(#sh54)">
    <circle r="78" fill="url(#ball54g)" stroke="#2c1808" stroke-width="2"/>
    <g stroke="#2c1808" stroke-width="1.2" fill="none">
      <line x1="-78" y1="0" x2="78" y2="0"/>
      <line x1="0" y1="-78" x2="0" y2="78"/>
      <ellipse cx="0" cy="0" rx="78" ry="30"/>
      <ellipse cx="0" cy="0" rx="30" ry="78"/>
      <path d="M-55,-55 Q0,-78 55,-55"/>
      <path d="M-55,55 Q0,78 55,55"/>
    </g>
  </g>
  <text x="240" y="368" text-anchor="middle" fill="#f0d060" font-size="14" font-family="Georgia, serif" letter-spacing="3" opacity="0.95">FIFA WORLD CUP</text>
  <text x="240" y="436" text-anchor="middle" fill="#f0d060" font-size="86" font-family="Georgia, serif" font-weight="900">1954</text>
  <rect x="120" y="450" width="240" height="38" rx="3" fill="#FFFFFF" opacity="0.95"/>
  <text x="240" y="476" text-anchor="middle" fill="#a02020" font-size="18" font-family="Georgia, serif" font-weight="700" letter-spacing="2">SCHWEIZ · SUISSE</text>
  <rect x="16" y="558" width="448" height="66" fill="#5a0a0a" opacity="0.9"/>
  <text x="240" y="582" text-anchor="middle" fill="#f0d060" font-size="11" font-family="Georgia, serif" letter-spacing="2">SICKER SAMMELBILDER · 200 ITEMS</text>
  <text x="240" y="606" text-anchor="middle" fill="#c8a840" font-size="9" font-family="Georgia, serif" letter-spacing="1" opacity="0.85">GERMAN TRADING CARDS · WUNDER VON BERN</text>
</svg>
