<svg xmlns="http://www.w3.org/2000/svg" width="480" height="640" viewBox="0 0 480 640">
  <defs>
    <linearGradient id="bg26" x1="0" y1="0" x2="1" y2="1">
      <stop offset="0%" stop-color="#0b2447"/>
      <stop offset="45%" stop-color="#114f8f"/>
      <stop offset="100%" stop-color="#0e6b5c"/>
    </linearGradient>
    <linearGradient id="stripe26" x1="0" y1="0" x2="1" y2="0">
      <stop offset="0%" stop-color="#d52b1e"/>
      <stop offset="50%" stop-color="#ffffff"/>
      <stop offset="100%" stop-color="#009246"/>
    </linearGradient>
    <radialGradient id="ball26" cx="35%" cy="30%" r="65%">
      <stop offset="0%" stop-color="#ffffff"/>
      <stop offset="100%" stop-color="#d6e0ea"/>
    </radialGradient>
    <filter id="shadow26"><feDropShadow dx="0" dy="5" stdDeviation="7" flood-color="#00000055"/></filter>
  </defs>

  <rect width="480" height="640" fill="url(#bg26)"/>

  <g opacity="0.12" fill="none" stroke="#ffffff" stroke-width="2">
    <path d="M0,490 C80,450 160,530 240,490 C320,450 400,530 480,490"/>
    <path d="M0,525 C80,485 160,565 240,525 C320,485 400,565 480,525"/>
  </g>

  <g opacity="0.2" fill="none" stroke="#f8d85e" stroke-width="1.5">
    <circle cx="115" cy="165" r="46"/>
    <circle cx="365" cy="165" r="46"/>
    <circle cx="240" cy="95" r="46"/>
  </g>

  <rect x="16" y="16" width="448" height="608" rx="20" fill="none" stroke="#f8d85e" stroke-width="5" opacity="0.9"/>
  <rect x="24" y="24" width="432" height="592" rx="15" fill="none" stroke="#ffffff" stroke-width="1.4" opacity="0.35"/>

  <rect x="16" y="16" width="448" height="54" rx="20" fill="#071a34" opacity="0.95"/>
  <text x="240" y="51" text-anchor="middle" fill="#f8d85e" font-size="22" font-family="Arial Black, Arial, sans-serif" font-weight="900" letter-spacing="4">PANINI</text>

  <rect x="16" y="68" width="448" height="8" fill="url(#stripe26)"/>

  <g transform="translate(240,245)" filter="url(#shadow26)">
    <circle r="76" fill="url(#ball26)"/>
    <polygon points="0,-36 32,-12 20,24 -20,24 -32,-12" fill="#0f2f57" opacity="0.72"/>
    <path d="M0,-76 C44,-52 54,-8 42,30 C26,56 -26,56 -42,30 C-54,-8 -44,-52 0,-76 Z" fill="none" stroke="#0f2f57" stroke-width="6" opacity="0.35"/>
    <path d="M-62,14 C-32,6 32,6 62,14" fill="none" stroke="#d52b1e" stroke-width="6" opacity="0.6"/>
    <circle r="76" fill="none" stroke="#93a8bc" stroke-width="1.5"/>
  </g>

  <text x="240" y="362" text-anchor="middle" fill="#f8d85e" font-size="14" font-family="Arial, sans-serif" font-weight="700" letter-spacing="4">FIFA WORLD CUP</text>
  <text x="240" y="438" text-anchor="middle" fill="#f8d85e" font-size="90" font-family="Arial Black, Arial, sans-serif" font-weight="900" filter="url(#shadow26)">2026</text>

  <rect x="92" y="452" width="296" height="42" rx="9" fill="#072245" opacity="0.8"/>
  <text x="240" y="478" text-anchor="middle" fill="#ffffff" font-size="16" font-family="Arial, sans-serif" font-weight="700" letter-spacing="2">CANADA  MEXICO  UNITED STATES</text>

  <rect x="16" y="560" width="448" height="64" fill="#06162c" opacity="0.56"/>
  <rect x="16" y="605" width="448" height="19" rx="20" fill="#0b2447" opacity="0.85"/>
  <text x="240" y="590" text-anchor="middle" fill="#f8d85e" font-size="13" font-family="Arial, sans-serif" letter-spacing="1">1200 STICKERS - IN PROGRESS EDITION</text>
</svg>
