<svg xmlns="http://www.w3.org/2000/svg" width="480" height="640" viewBox="0 0 480 640">
  <defs>
    <linearGradient id="bg50" x1="0" y1="0" x2="0" y2="1">
      <stop offset="0%" stop-color="#0a6a3a"/>
      <stop offset="100%" stop-color="#053c1f"/>
    </linearGradient>
    <radialGradient id="ball50g" cx="38%" cy="32%" r="62%">
      <stop offset="0%" stop-color="#c69a6b"/>
      <stop offset="100%" stop-color="#6b3f1c"/>
    </radialGradient>
    <filter id="sh50"><feDropShadow dx="0" dy="3" stdDeviation="5" flood-color="#00000088"/></filter>
  </defs>
  <rect width="480" height="640" fill="url(#bg50)"/>
  <g opacity="0.12" fill="#FEDF00">
    <polygon points="240,80 250,108 280,108 256,126 266,156 240,138 214,156 224,126 200,108 230,108"/>
  </g>
  <rect x="16" y="16" width="448" height="608" rx="6" fill="none" stroke="#FEDF00" stroke-width="4" opacity="0.9"/>
  <rect x="16" y="16" width="448" height="58" fill="#002776" opacity="0.95"/>
  <text x="240" y="48" text-anchor="middle" fill="#FEDF00" font-size="18" font-family="Georgia, serif" font-weight="700" letter-spacing="5">COPA DO MUNDO · BRASIL</text>
  <g transform="translate(240,235)" filter="url(#sh50)">
    <circle r="78" fill="url(#ball50g)" stroke="#3a2210" stroke-width="2"/>
    <path d="M-78,-10 Q0,-40 78,-10" fill="none" stroke="#3a2210" stroke-width="1.5"/>
    <path d="M-78,10 Q0,40 78,10" fill="none" stroke="#3a2210" stroke-width="1.5"/>
    <line x1="-78" y1="0" x2="78" y2="0" stroke="#3a2210" stroke-width="1.5"/>
    <line x1="0" y1="-78" x2="0" y2="78" stroke="#3a2210" stroke-width="1.2"/>
    <ellipse cx="0" cy="0" rx="78" ry="30" fill="none" stroke="#3a2210" stroke-width="1.2"/>
  </g>
  <text x="240" y="368" text-anchor="middle" fill="#FEDF00" font-size="14" font-family="Georgia, serif" letter-spacing="3" opacity="0.9">FIFA WORLD CUP</text>
  <text x="240" y="436" text-anchor="middle" fill="#FEDF00" font-size="86" font-family="Georgia, serif" font-weight="900">1950</text>
  <polygon points="120,450 360,450 360,488 120,488" fill="#FEDF00" opacity="0.95"/>
  <text x="240" y="476" text-anchor="middle" fill="#002776" font-size="20" font-family="Georgia, serif" font-weight="700" letter-spacing="4">BRASIL</text>
  <rect x="16" y="558" width="448" height="66" fill="#053c1f" opacity="0.9"/>
  <text x="240" y="582" text-anchor="middle" fill="#FEDF00" font-size="11" font-family="Georgia, serif" letter-spacing="2">ASER · FIGURINHAS · 160 ITEMS</text>
  <text x="240" y="606" text-anchor="middle" fill="#bda828" font-size="9" font-family="Georgia, serif" letter-spacing="1" opacity="0.85">BRAZILIAN PUBLISHER · PRE-PANINI</text>
</svg>
