<svg xmlns="http://www.w3.org/2000/svg" width="480" height="640" viewBox="0 0 480 640">
  <defs>
    <linearGradient id="bg66" x1="0" y1="0" x2="0" y2="1">
      <stop offset="0%" stop-color="#1E1E5A"/>
      <stop offset="100%" stop-color="#0c0c2e"/>
    </linearGradient>
    <radialGradient id="ball66g" cx="38%" cy="32%" r="62%">
      <stop offset="0%" stop-color="#c69a6b"/>
      <stop offset="100%" stop-color="#6b3f1c"/>
    </radialGradient>
    <filter id="sh66"><feDropShadow dx="0" dy="3" stdDeviation="5" flood-color="#00000088"/></filter>
  </defs>
  <rect width="480" height="640" fill="url(#bg66)"/>
  <g opacity="0.18" stroke="#CE1124" stroke-width="3" fill="none">
    <line x1="240" y1="0" x2="240" y2="640"/>
    <line x1="0" y1="320" x2="480" y2="320"/>
  </g>
  <rect x="16" y="16" width="448" height="608" rx="6" fill="none" stroke="#FFFFFF" stroke-width="4" opacity="0.9"/>
  <rect x="16" y="16" width="448" height="58" fill="#CE1124" opacity="0.95"/>
  <text x="240" y="48" text-anchor="middle" fill="#FFFFFF" font-size="18" font-family="Georgia, serif" font-weight="700" letter-spacing="6">WORLD CUP · ENGLAND 66</text>
  <g transform="translate(240,225)" filter="url(#sh66)">
    <circle r="78" fill="url(#ball66g)" stroke="#2c1808" stroke-width="2"/>
    <g stroke="#2c1808" stroke-width="1.2" fill="none">
      <line x1="-78" y1="0" x2="78" y2="0"/>
      <line x1="0" y1="-78" x2="0" y2="78"/>
      <path d="M-78,-15 Q0,-35 78,-15"/>
      <path d="M-78,15 Q0,35 78,15"/>
      <ellipse cx="0" cy="0" rx="40" ry="78"/>
    </g>
  </g>
  <g transform="translate(380,200)" opacity="0.85">
    <ellipse cx="0" cy="0" rx="22" ry="28" fill="#c8923e"/>
    <circle cx="0" cy="-10" r="9" fill="#a87830"/>
    <text x="0" y="42" text-anchor="middle" fill="#FFFFFF" font-size="8" font-family="Georgia, serif">WILLIE</text>
  </g>
  <text x="240" y="358" text-anchor="middle" fill="#FFFFFF" font-size="14" font-family="Georgia, serif" letter-spacing="3" opacity="0.9">FIFA WORLD CUP</text>
  <text x="240" y="426" text-anchor="middle" fill="#FFFFFF" font-size="86" font-family="Georgia, serif" font-weight="900">1966</text>
  <rect x="120" y="440" width="240" height="40" rx="3" fill="#CE1124" opacity="0.95"/>
  <text x="240" y="467" text-anchor="middle" fill="#FFFFFF" font-size="20" font-family="Georgia, serif" font-weight="700" letter-spacing="3">ENGLAND</text>
  <rect x="16" y="558" width="448" height="66" fill="#0c0c2e" opacity="0.9"/>
  <text x="240" y="582" text-anchor="middle" fill="#FFFFFF" font-size="11" font-family="Georgia, serif" letter-spacing="2">A&amp;BC · FKS · 271 STICKERS</text>
  <text x="240" y="606" text-anchor="middle" fill="#a0a0d0" font-size="9" font-family="Georgia, serif" letter-spacing="1" opacity="0.85">FIRST OFFICIAL MASCOT · WORLD CUP WILLIE</text>
</svg>
