<svg xmlns="http://www.w3.org/2000/svg" width="480" height="640" viewBox="0 0 480 640">
  <defs>
    <linearGradient id="bg34" x1="0" y1="0" x2="0" y2="1">
      <stop offset="0%" stop-color="#0a4d2a"/>
      <stop offset="100%" stop-color="#06321b"/>
    </linearGradient>
    <radialGradient id="ball34g" cx="38%" cy="32%" r="62%">
      <stop offset="0%" stop-color="#b88a5c"/>
      <stop offset="100%" stop-color="#5a3414"/>
    </radialGradient>
    <filter id="sh34"><feDropShadow dx="0" dy="3" stdDeviation="5" flood-color="#00000088"/></filter>
  </defs>
  <rect width="480" height="640" fill="url(#bg34)"/>
  <rect x="16" y="16" width="448" height="608" rx="6" fill="none" stroke="#d4a82a" stroke-width="4" opacity="0.9"/>
  <rect x="26" y="26" width="428" height="588" rx="3" fill="none" stroke="#d4a82a" stroke-width="1" opacity="0.5"/>
  <rect x="16" y="16" width="448" height="58" fill="#a01818" opacity="0.95"/>
  <text x="240" y="42" text-anchor="middle" fill="#f1d27c" font-size="14" font-family="Georgia, serif" font-weight="700" letter-spacing="5">COPPA DEL MONDO</text>
  <text x="240" y="62" text-anchor="middle" fill="#f1d27c" font-size="11" font-family="Georgia, serif" letter-spacing="3">ITALIA 1934 · FASCIST ERA SERIES</text>
  <g transform="translate(240,230)" filter="url(#sh34)">
    <circle r="78" fill="url(#ball34g)" stroke="#2c1808" stroke-width="2"/>
    <g stroke="#2c1808" stroke-width="1.2" fill="none">
      <line x1="-78" y1="0" x2="78" y2="0"/>
      <path d="M-78,-15 Q0,-35 78,-15"/>
      <path d="M-78,15 Q0,35 78,15"/>
      <line x1="-30" y1="-72" x2="-30" y2="72"/>
      <line x1="0" y1="-78" x2="0" y2="78"/>
      <line x1="30" y1="-72" x2="30" y2="72"/>
    </g>
  </g>
  <text x="240" y="368" text-anchor="middle" fill="#f1d27c" font-size="14" font-family="Georgia, serif" letter-spacing="3" opacity="0.85">FIFA WORLD CUP</text>
  <text x="240" y="436" text-anchor="middle" fill="#d4a82a" font-size="86" font-family="Georgia, serif" font-weight="900">1934</text>
  <rect x="120" y="450" width="240" height="38" rx="3" fill="#a01818" opacity="0.95"/>
  <text x="240" y="476" text-anchor="middle" fill="#f1d27c" font-size="20" font-family="Georgia, serif" font-weight="700" letter-spacing="3">ITALIA</text>
  <rect x="16" y="558" width="448" height="66" fill="#06321b" opacity="0.85"/>
  <text x="240" y="582" text-anchor="middle" fill="#d4a82a" font-size="11" font-family="Georgia, serif" letter-spacing="2">WILLS'S ASSOCIATION FOOTBALLERS · 132 CARDS</text>
  <text x="240" y="606" text-anchor="middle" fill="#a88840" font-size="9" font-family="Georgia, serif" letter-spacing="1" opacity="0.85">CIGARETTE-CARD SERIES (UK)</text>
</svg>
