<svg xmlns="http://www.w3.org/2000/svg" width="480" height="640" viewBox="0 0 480 640">
  <defs>
    <linearGradient id="bg38" x1="0" y1="0" x2="1" y2="1">
      <stop offset="0%" stop-color="#0d2c66"/>
      <stop offset="50%" stop-color="#0a1f47"/>
      <stop offset="100%" stop-color="#06122c"/>
    </linearGradient>
    <radialGradient id="ball38g" cx="38%" cy="32%" r="62%">
      <stop offset="0%" stop-color="#b88a5c"/>
      <stop offset="100%" stop-color="#5a3414"/>
    </radialGradient>
    <filter id="sh38"><feDropShadow dx="0" dy="3" stdDeviation="5" flood-color="#00000088"/></filter>
  </defs>
  <rect width="480" height="640" fill="url(#bg38)"/>
  <g opacity="0.18" fill="none" stroke="#e3c068" stroke-width="0.8">
    <circle cx="240" cy="320" r="220"/>
    <circle cx="240" cy="320" r="170"/>
    <circle cx="240" cy="320" r="120"/>
  </g>
  <rect x="16" y="16" width="448" height="608" rx="6" fill="none" stroke="#e3c068" stroke-width="4" opacity="0.85"/>
  <rect x="16" y="16" width="448" height="58" fill="#0a1f47" opacity="0.95"/>
  <rect x="16" y="60" width="448" height="6" fill="#e3c068" opacity="0.9"/>
  <text x="240" y="48" text-anchor="middle" fill="#e3c068" font-size="18" font-family="Georgia, serif" font-weight="700" letter-spacing="6">COUPE DU MONDE</text>
  <g transform="translate(240,235)" filter="url(#sh38)">
    <circle r="78" fill="url(#ball38g)" stroke="#2c1808" stroke-width="2"/>
    <g stroke="#2c1808" stroke-width="1.2" fill="none">
      <line x1="-78" y1="0" x2="78" y2="0"/>
      <line x1="0" y1="-78" x2="0" y2="78"/>
      <path d="M-78,-15 Q0,-35 78,-15"/>
      <path d="M-78,15 Q0,35 78,15"/>
      <line x1="-55" y1="-55" x2="55" y2="55"/>
      <line x1="55" y1="-55" x2="-55" y2="55"/>
    </g>
  </g>
  <text x="240" y="368" text-anchor="middle" fill="#e3c068" font-size="14" font-family="Georgia, serif" letter-spacing="3" opacity="0.9">FIFA WORLD CUP</text>
  <text x="240" y="436" text-anchor="middle" fill="#e3c068" font-size="86" font-family="Georgia, serif" font-weight="900">1938</text>
  <rect x="80" y="450" width="100" height="38" fill="#0055A4" opacity="0.95"/>
  <rect x="180" y="450" width="100" height="38" fill="#FFFFFF" opacity="0.95"/>
  <rect x="280" y="450" width="120" height="38" fill="#EF4135" opacity="0.95"/>
  <text x="240" y="476" text-anchor="middle" fill="#0a1f47" font-size="20" font-family="Georgia, serif" font-weight="700" letter-spacing="3">FRANCE</text>
  <rect x="16" y="558" width="448" height="66" fill="#06122c" opacity="0.85"/>
  <text x="240" y="582" text-anchor="middle" fill="#e3c068" font-size="11" font-family="Georgia, serif" letter-spacing="2">PERIOD PRESS COLLECTIBLES · 120 ITEMS</text>
  <text x="240" y="606" text-anchor="middle" fill="#b89a48" font-size="9" font-family="Georgia, serif" letter-spacing="1" opacity="0.85">PRE-PANINI ERA · NEWSPAPER SUPPLEMENTS</text>
</svg>
