<svg xmlns="http://www.w3.org/2000/svg" width="480" height="640" viewBox="0 0 480 640">
  <defs>
    <linearGradient id="bg58" x1="0" y1="0" x2="0" y2="1">
      <stop offset="0%" stop-color="#0a4f8a"/>
      <stop offset="100%" stop-color="#062a4d"/>
    </linearGradient>
    <radialGradient id="ball58g" cx="38%" cy="32%" r="62%">
      <stop offset="0%" stop-color="#c69a6b"/>
      <stop offset="100%" stop-color="#6b3f1c"/>
    </radialGradient>
    <filter id="sh58"><feDropShadow dx="0" dy="3" stdDeviation="5" flood-color="#00000088"/></filter>
  </defs>
  <rect width="480" height="640" fill="url(#bg58)"/>
  <g opacity="0.18" fill="#FFCD00">
    <rect x="0" y="290" width="480" height="20"/>
    <rect x="160" y="120" width="20" height="380"/>
  </g>
  <rect x="16" y="16" width="448" height="608" rx="6" fill="none" stroke="#FFCD00" stroke-width="4" opacity="0.9"/>
  <rect x="16" y="16" width="448" height="58" fill="#062a4d" opacity="0.95"/>
  <text x="240" y="48" text-anchor="middle" fill="#FFCD00" font-size="18" font-family="Georgia, serif" font-weight="700" letter-spacing="5">VÄRLDSMÄSTERSKAPET</text>
  <g transform="translate(240,235)" filter="url(#sh58)">
    <circle r="78" fill="url(#ball58g)" stroke="#2c1808" stroke-width="2"/>
    <g stroke="#2c1808" stroke-width="1.2" fill="none">
      <line x1="-78" y1="0" x2="78" y2="0"/>
      <line x1="0" y1="-78" x2="0" y2="78"/>
      <line x1="-55" y1="-55" x2="55" y2="55"/>
      <line x1="55" y1="-55" x2="-55" y2="55"/>
      <circle r="32"/>
      <circle r="55"/>
    </g>
  </g>
  <text x="240" y="368" text-anchor="middle" fill="#FFCD00" font-size="14" font-family="Georgia, serif" letter-spacing="3" opacity="0.9">FIFA WORLD CUP</text>
  <text x="240" y="436" text-anchor="middle" fill="#FFCD00" font-size="86" font-family="Georgia, serif" font-weight="900">1958</text>
  <rect x="120" y="450" width="240" height="38" rx="3" fill="#FFCD00" opacity="0.95"/>
  <text x="240" y="476" text-anchor="middle" fill="#062a4d" font-size="20" font-family="Georgia, serif" font-weight="700" letter-spacing="3">SVERIGE</text>
  <rect x="16" y="558" width="448" height="66" fill="#062a4d" opacity="0.9"/>
  <text x="240" y="582" text-anchor="middle" fill="#FFCD00" font-size="11" font-family="Georgia, serif" letter-spacing="2">ALIFABOLAGET · 240 STICKERS</text>
  <text x="240" y="606" text-anchor="middle" fill="#c8a020" font-size="9" font-family="Georgia, serif" letter-spacing="1" opacity="0.85">SWEDISH PUBLISHER · PELÉ'S WORLD STAGE DEBUT</text>
</svg>
