<svg xmlns="http://www.w3.org/2000/svg" width="480" height="640" viewBox="0 0 480 640">
  <defs>
    <linearGradient id="bg62" x1="0" y1="0" x2="0" y2="1">
      <stop offset="0%" stop-color="#b3231b"/>
      <stop offset="100%" stop-color="#6a0e0a"/>
    </linearGradient>
    <radialGradient id="ball62g" cx="38%" cy="32%" r="62%">
      <stop offset="0%" stop-color="#c69a6b"/>
      <stop offset="100%" stop-color="#6b3f1c"/>
    </radialGradient>
    <filter id="sh62"><feDropShadow dx="0" dy="3" stdDeviation="5" flood-color="#00000088"/></filter>
  </defs>
  <rect width="480" height="640" fill="url(#bg62)"/>
  <g opacity="0.16" fill="#FFFFFF">
    <polygon points="240,100 250,124 276,124 256,140 264,166 240,150 216,166 224,140 204,124 230,124"/>
  </g>
  <rect x="16" y="16" width="448" height="608" rx="6" fill="none" stroke="#FFFFFF" stroke-width="4" opacity="0.85"/>
  <rect x="16" y="16" width="448" height="58" fill="#0039A6" opacity="0.95"/>
  <text x="240" y="48" text-anchor="middle" fill="#FFFFFF" font-size="18" font-family="Georgia, serif" font-weight="700" letter-spacing="5">CAMPEONATO MUNDIAL</text>
  <g transform="translate(240,235)" filter="url(#sh62)">
    <circle r="78" fill="url(#ball62g)" stroke="#2c1808" stroke-width="2"/>
    <g stroke="#2c1808" stroke-width="1.2" fill="none">
      <line x1="-78" y1="0" x2="78" y2="0"/>
      <line x1="0" y1="-78" x2="0" y2="78"/>
      <path d="M-78,-20 Q0,-50 78,-20"/>
      <path d="M-78,20 Q0,50 78,20"/>
      <path d="M-78,-40 Q0,-65 78,-40"/>
      <path d="M-78,40 Q0,65 78,40"/>
    </g>
  </g>
  <text x="240" y="368" text-anchor="middle" fill="#FFFFFF" font-size="14" font-family="Georgia, serif" letter-spacing="3" opacity="0.9">FIFA WORLD CUP</text>
  <text x="240" y="436" text-anchor="middle" fill="#FFFFFF" font-size="86" font-family="Georgia, serif" font-weight="900">1962</text>
  <rect x="120" y="450" width="240" height="38" rx="3" fill="#0039A6" opacity="0.95"/>
  <text x="240" y="476" text-anchor="middle" fill="#FFFFFF" font-size="20" font-family="Georgia, serif" font-weight="700" letter-spacing="4">CHILE</text>
  <rect x="16" y="558" width="448" height="66" fill="#6a0e0a" opacity="0.9"/>
  <text x="240" y="582" text-anchor="middle" fill="#FFFFFF" font-size="11" font-family="Georgia, serif" letter-spacing="2">BRUGUERA · CHOCOLATES LA AZTECA · 256 ITEMS</text>
  <text x="240" y="606" text-anchor="middle" fill="#f0c0c0" font-size="9" font-family="Georgia, serif" letter-spacing="1" opacity="0.85">LATIN AMERICAN PUBLISHERS · PRE-PANINI</text>
</svg>
